{"title":"Ghost Whisperer 0301 - The Underneath.avi","uid":4943641,"size":366987264,"categoryP":"video","categoryS":"tv_shows","magnet":"?xt=urn:btih:b6ec5f444be5bc025b9e62ca95131af4c9fd4cfb&amp;dn=Ghost+Whisperer+0301+-+The+Underneath.avi&amp;tr=udp%3A%2F%2Ftracker.openbittorrent.com%3A80&amp;tr=udp%3A%2F%2Fopen.demonii.com%3A1337&amp;tr=udp%3A%2F%2Ftracker.coppersurfer.tk%3A6969&amp;tr=udp%3A%2F%2Fexodus.desync.com%3A6969","seeders":0,"leechers":0,"uploader":"xkissie","files":1,"time":1244559704,"description":"Melinda Gordon inherited her &quot;gift&quot; -- the ability to see and talk with the spirits of dead people -- from, and was coached it its use by her grandmother. Running an antique store in a small town, newly married to a paramedic, Melinda helps the ghosts wandering around who are trapped between worlds by helping them to resolve unfulfilled aspects of their former life.\n\nFormat : AVI\nFormat/Info : Audio Video Interleave\nFile size : 350 MiB\nDuration : 43mn 57s\nOverall bit rate : 1113 Kbps\nWriting application : VirtualDubMod 1.5.10.2 (build 2542/release)\nWriting library : VirtualDubMod build 2542/release\n\nVideo\nFormat : MPEG-4 Visual\nFormat profile : Streaming Video@L1\nFormat settings, BVOP : Yes\nFormat settings, QPel : No\nFormat settings, GMC : No warppoints\nFormat settings, Matrix : Default\nCodec ID : XVID\nCodec ID/Hint : XviD\nDuration : 43mn 57s\nBit rate : 971 Kbps\nWidth : 624 pixels\nHeight : 352 pixels\nDisplay aspect ratio : 16/9\nFrame rate : 23.976 fps\nResolution : 8 bits\nColorimetry : 4:2:0\nScan type : Progressive\nBits/(Pixel*Frame) : 0.184\nStream size : 305 MiB (87%)\nWriting library : XviD 1.1.2 (UTC 2006-11-01)\n\nAudio\nFormat : MPEG Audio\nFormat version : Version 1\nFormat profile : Layer 3\nCodec ID : 55\nCodec ID/Hint : MP3\nDuration : 43mn 57s\nBit rate mode : Variable\nBit rate : 129 Kbps\nMinimum bit rate : 32.0 Kbps\nChannel(s) : 2 channels\nSampling rate : 48.0 KHz\nResolution : 16 bits\nStream size : 40.6 MiB (12%)\nAlignment : Aligned on interleaves\nInterleave, duration : 24 ms (0.58 video frame)\nInterleave, preload duration : 532 ms\nWriting library : LAME3.97\nEncoding settings : VBR (mtrh)","torrent":{"xt":"urn:btih:b6ec5f444be5bc025b9e62ca95131af4c9fd4cfb","amp;dn":"Ghost+Whisperer+0301+-+The+Underneath.avi","amp;tr":["udp%3A%2F%2Ftracker.openbittorrent.com%3A80","udp%3A%2F%2Fopen.demonii.com%3A1337","udp%3A%2F%2Ftracker.coppersurfer.tk%3A6969","udp%3A%2F%2Fexodus.desync.com%3A6969"],"infoHash":"b6ec5f444be5bc025b9e62ca95131af4c9fd4cfb","infoHashBuffer":{"type":"Buffer","data":[182,236,95,68,75,229,188,2,91,158,98,202,149,19,26,244,201,253,76,251]},"announce":[],"urlList":[]}}